<svg xmlns="http://www.w3.org/2000/svg" viewBox="0 0 64.79 64.79">
  <path id="b" d="m55.21,55.2h-9.6v-15.03c0-3.58-.06-8.2-4.99-8.2s-5.77,3.91-5.77,7.94v15.29h-9.6v-30.92h9.22v4.22h.13c1.88-3.21,5.37-5.13,9.09-4.99,9.73,0,11.52,6.4,11.52,14.73v16.96ZM14.42,20.06c-3.08,0-5.57-2.49-5.57-5.57s2.49-5.57,5.57-5.57c3.08,0,5.57,2.49,5.57,5.57s-2.49,5.57-5.57,5.57h0m4.8,35.14h-9.61v-30.92h9.61v30.92ZM59.99,0H4.78C2.17-.03.03,2.07,0,4.67v55.44c.03,2.61,2.17,4.7,4.78,4.68h55.21c2.62.03,4.76-2.06,4.8-4.68V4.67C64.75,2.06,62.61-.03,59.99,0"></path>
</svg>